<?xml version="1.0" standalone="no"?>
<!DOCTYPE svg PUBLIC "-//W3C//DTD SVG 20010904//EN"
 "http://www.w3.org/TR/2001/REC-SVG-20010904/DTD/svg10.dtd">
<svg version="1.0" xmlns="http://www.w3.org/2000/svg"
 width="280.000000pt" height="280.000000pt" viewBox="0 0 280.000000 280.000000"
 preserveAspectRatio="xMidYMid meet">
<metadata>
Created by potrace 1.11, written by Peter Selinger 2001-2013
</metadata>
<g transform="translate(0.000000,280.000000) scale(0.100000,-0.100000)"
fill="#000000" stroke="none">
<path d="M408 1713 c-2 -5 -3 -95 -3 -200 1 -218 11 -195 -85 -195 -43 0 -46
-2 -48 -28 -2 -26 1 -28 30 -28 18 0 50 0 70 -1 l37 -1 -2 -48 c-2 -43 0 -48
21 -50 20 -2 22 2 22 48 0 50 0 50 33 51 17 0 490 1 1050 1 l1018 0 -3 27 -3
26 -1035 2 c-569 1 -1041 2 -1047 2 -10 1 -13 48 -13 201 0 191 -1 200 -19
200 -11 0 -21 -3 -23 -7z"/>
<path d="M957 1713 c-3 -5 -4 -29 -3 -55 1 -27 1 -48 0 -48 -1 0 -15 5 -32 11
-90 31 -161 -66 -130 -177 16 -61 93 -94 149 -64 13 7 19 7 19 0 0 -5 11 -10
25 -10 l25 0 0 175 0 175 -24 0 c-14 0 -27 -3 -29 -7z m-23 -149 c24 -24 26
-109 2 -132 -20 -20 -67 -18 -83 4 -18 24 -16 95 3 122 18 26 56 29 78 6z"/>
<path d="M1224 1660 c1 -45 -1 -57 -10 -49 -20 16 -57 20 -92 8 -77 -25 -93
-175 -25 -228 28 -23 82 -28 114 -11 13 8 19 7 19 0 0 -6 10 -10 23 -8 22 3
22 5 25 176 l2 172 -29 0 -29 0 2 -60z m-20 -96 c24 -24 25 -108 1 -133 -19
-19 -66 -17 -82 5 -18 24 -16 95 3 122 18 26 56 29 78 6z"/>
<path d="M1860 1545 l0 -175 25 0 25 0 0 175 0 175 -25 0 -25 0 0 -175z"/>
<path d="M1970 1545 l0 -175 25 0 25 0 0 175 0 175 -25 0 -25 0 0 -175z"/>
<path d="M1455 1702 c-89 -19 -129 -77 -123 -182 5 -101 53 -150 147 -150 69
0 91 9 91 35 0 22 -3 23 -58 18 -71 -7 -98 6 -118 52 -44 106 24 197 129 173
41 -9 56 -1 57 29 0 17 -84 34 -125 25z"/>
<path d="M2204 1695 c-9 -23 3 -45 25 -45 21 0 33 22 25 45 -4 8 -15 15 -25
15 -11 0 -22 -7 -25 -15z"/>
<path d="M607 1693 c-7 -11 -127 -312 -127 -318 0 -3 11 -5 26 -5 21 0 29 8
46 50 l21 50 57 0 58 0 18 -50 c14 -40 23 -50 40 -50 13 0 25 3 27 8 2 4 -24
77 -58 162 -49 124 -66 156 -82 158 -12 2 -23 -1 -26 -5z m44 -128 l17 -45
-39 0 -38 0 17 45 c9 25 19 45 22 45 3 0 12 -20 21 -45z"/>
<path d="M1665 1616 c-37 -17 -54 -44 -61 -100 -12 -85 41 -146 126 -146 51 0
80 15 80 39 0 17 -6 19 -58 14 -47 -4 -62 -2 -76 12 -35 35 -17 49 63 49 48 1
76 5 78 13 2 6 -1 30 -7 52 -17 65 -83 95 -145 67z m83 -48 c26 -26 13 -38
-38 -38 -52 0 -60 8 -34 34 18 19 55 21 72 4z"/>
<path d="M2395 1621 c-11 -5 -35 -6 -52 -3 l-33 5 0 -127 c0 -126 0 -126 24
-126 22 0 23 3 28 92 6 97 17 118 62 118 41 0 47 -13 49 -111 2 -93 2 -94 27
-94 l25 0 0 103 c-1 88 -4 105 -20 122 -23 22 -80 33 -110 21z"/>
<path d="M2200 1495 l0 -125 25 0 25 0 0 125 0 125 -25 0 -25 0 0 -125z"/>
<path d="M2084 1426 c-11 -28 1 -51 27 -54 29 -3 44 18 34 49 -8 23 -53 26
-61 5z"/>
</g>
</svg>
